<?xml version="1.0" standalone="no"?>
<!DOCTYPE svg PUBLIC "-//W3C//DTD SVG 1.1//EN" "http://www.w3.org/Graphics/SVG/1.1/DTD/svg11.dtd" >
<!--
2015-6-24: Created with FontForge (http://fontforge.org)
-->
<svg xmlns="http://www.w3.org/2000/svg" xmlns:xlink="http://www.w3.org/1999/xlink" version="1.1">
<metadata>
Created by FontForge 20150504 at Wed Jun 24 16:25:48 2015
 By Tan
Copyright (c) 2015, Tan
</metadata>
<defs>
<font id="fontcustom" horiz-adv-x="512" >
  <font-face 
    font-family="fontcustom"
    font-weight="400"
    font-stretch="normal"
    units-per-em="512"
    panose-1="2 0 5 3 0 0 0 0 0 0"
    ascent="448"
    descent="-64"
    bbox="-32 -64.1709 512.752 451.556"
    underline-thickness="25.6"
    underline-position="-51.2"
    unicode-range="U+0020-F141"
  />
    <missing-glyph />
    <glyph glyph-name="space" unicode=" " horiz-adv-x="200" 
 />
    <glyph glyph-name="uniF11D" unicode="&#xf11d;" 
d="M320 207.133c88.1777 0 163.101 -56.4053 192 -135.311c-28.8994 -78.9619 -103.822 -135.311 -192 -135.311c-88.1211 0 -163.044 56.3486 -192 135.311c28.9561 78.9336 103.879 135.311 192 135.311zM320 -35.0146c75.1221 0 138.951 44.5146 163.556 106.837
c-24.6045 62.3213 -88.4336 106.809 -163.556 106.809c-75.0645 0 -138.895 -44.5156 -163.556 -106.809c24.6611 -62.3223 88.4912 -106.837 163.556 -106.837zM108.431 21.248c5.74512 -9.95605 12.1172 -19.4277 18.9717 -28.501h-98.958
c-15.7295 0 -28.4443 12.7715 -28.4443 28.501v398.791c0 15.7295 12.7148 28.4727 28.4443 28.4727h369.778c15.7295 0 28.4443 -12.7432 28.4443 -28.4727v-196.352c-9.1875 4.75 -18.6602 8.98828 -28.4443 12.4863v169.614c0 7.85059 -6.37207 14.251 -14.2227 14.251
h-341.333c-7.85059 0 -14.2227 -6.40039 -14.2227 -14.251v-370.317c0 -7.82227 6.37207 -14.2227 14.2227 -14.2227h65.7637zM100.182 321.053c-7.87988 0 -14.2227 6.37109 -14.2227 14.25c0 7.85059 6.37207 14.251 14.2227 14.251h113.777
c7.85059 0 14.2227 -6.40039 14.2227 -14.251s-6.37207 -14.25 -14.2227 -14.25h-113.777zM299.292 292.579c7.85156 0 14.2227 -6.39941 14.2227 -14.25s-6.37109 -14.251 -14.2227 -14.251h-199.11c-7.85059 0 -14.2227 6.40039 -14.2227 14.251
s6.37207 14.25 14.2227 14.25h199.11zM100.182 207.133c-7.87988 0 -14.2227 6.34277 -14.2227 14.2217c0 7.85059 6.37207 14.251 14.2227 14.251h140.146c-19.3418 -7.08301 -37.5469 -16.7256 -54.4707 -28.4727h-85.6748zM100.182 150.414
c-7.87988 0 -14.2227 6.37207 -14.2227 14.251c0 7.85059 6.37207 14.251 14.2227 14.251h51.8252c-8.90332 -8.84668 -17.209 -18.376 -24.8887 -28.502h-26.9365zM320 150.158c43.207 0 78.2227 -35.1006 78.2227 -78.3359
c0 -43.2637 -35.0156 -78.3359 -78.2227 -78.3359s-78.2227 35.0723 -78.2227 78.3359s35.0156 78.3359 78.2227 78.3359zM320 21.959c27.5059 0 49.7773 22.3291 49.7773 49.8633s-22.2715 49.835 -49.7773 49.835s-49.7773 -22.3008 -49.7773 -49.835
s22.2715 -49.8633 49.7773 -49.8633z" />
    <glyph glyph-name="uniF102" unicode="&#xf102;" 
d="M508.388 315.022c5.51855 -5.54688 5.51855 -14.5635 0 -20.1104l-241.721 -241.551c-5.54688 -5.5459 -14.5635 -5.5459 -20.1104 0v0c-5.51855 5.54688 -5.51855 14.5645 0 20.1104l241.721 241.551c5.54688 5.54688 14.5635 5.54688 20.1104 0v0zM266.609 53.4473
c-5.5459 -5.54688 -14.5635 -5.54688 -20.1094 0l-241.807 241.664c-5.54688 5.54688 -5.51855 14.5635 0 20.1104v0c5.54688 5.5459 14.5635 5.5459 20.1104 0l241.806 -241.664c5.54688 -5.54688 5.51855 -14.5352 0 -20.1104v0z" />
    <glyph glyph-name="uniF106" unicode="&#xf106;" 
d="M4.49414 62.0088c-5.51855 5.54688 -5.51855 14.5635 0 20.1104l241.721 241.55c5.54688 5.54688 14.5635 5.54688 20.1104 0v0c5.51855 -5.5459 5.51855 -14.5635 0 -20.1094l-241.721 -241.551c-5.54688 -5.54688 -14.5635 -5.54688 -20.1104 0v0zM246.272 323.584
c5.5459 5.54688 14.5635 5.54688 20.1094 0l241.807 -241.664c5.54688 -5.54688 5.51855 -14.5635 0 -20.1104v0c-5.54688 -5.54688 -14.5635 -5.54688 -20.1104 0l-241.806 241.664c-5.5752 5.54688 -5.54688 14.5352 0 20.1104v0z" />
    <glyph glyph-name="uniF121" unicode="&#xf121;" 
d="M0 352l160 64v-384l-160 -64v384zM192 432l160 -96v-368l-160 80v384zM384 336l128 96v-384l-128 -96v384z" />
    <glyph glyph-name="uniF13F" unicode="&#xf13f;" 
d="M332.8 153.6l89.6006 89.6006l-89.6006 89.5996l38.4004 38.4004l128 -128l-128 -128zM179.2 332.8l-89.6006 -89.5996l89.6006 -89.6006l-38.4004 -38.3994l-128 128l128 128zM280.519 387.795l27.7891 -7.57715l-76.7939 -281.613l-27.7891 7.57812z" />
    <glyph glyph-name="uniF128" unicode="&#xf128;" 
d="M152 144c0 57.4404 46.5596 104 104 104s104 -46.5596 104 -104s-46.5596 -104 -104 -104s-104 46.5596 -104 104zM480 320c17.5996 0 32 -14.4004 32 -32v-288c0 -17.5996 -14.4004 -32 -32 -32h-448c-17.5996 0 -32 14.4004 -32 32v288c0 17.5996 14.4004 32 32 32h112
c8 32 16 64 48 64h128c32 0 40 -32 48 -64h112zM256 2c78.4238 0 142 63.5762 142 142s-63.5762 142 -142 142s-142 -63.5762 -142 -142s63.5762 -142 142 -142zM480 224v32h-64v-32h64z" />
    <glyph glyph-name="uniF11B" unicode="&#xf11b;" 
d="M479.944 384h-447.889l-0.0556641 -0.0556641v-383.889c0.015625 -0.015625 0.0322266 -0.0400391 0.0556641 -0.0556641h447.889l0.0556641 0.0556641v383.889zM480 416v0c17.5996 0 32 -14.4004 32 -32v-384c0 -17.5996 -14.4004 -32 -32 -32h-448
c-17.5996 0 -32 14.4004 -32 32v384c0 17.5996 14.4004 32 32 32h448zM416 304c0 -26.5117 -21.4883 -48 -48 -48s-48 21.4883 -48 48s21.4883 48 48 48s48 -21.4883 48 -48zM448 32h-384v64l112 192l128 -160h32l112 96v-192z" />
    <glyph glyph-name="uniF109" unicode="&#xf109;" 
d="M370.944 405.646c15.7295 0 28.501 -13.1133 28.501 -29.3262v-410.652c0 -16.1572 -12.7715 -29.3262 -28.501 -29.3262h-227.499c-15.7295 0 -28.4443 13.1689 -28.4443 29.3262v410.652c0 16.2129 12.7148 29.3262 28.4443 29.3262h227.499zM370.944 -19.6553v381.298
c0 8.13477 -6.34375 14.6777 -14.2227 14.6777h-199.054c-7.87988 0 -14.2227 -6.57129 -14.2227 -14.6777v-381.298c0 -8.10645 6.34277 -14.6768 14.2227 -14.6768h199.054c7.87891 0 14.2227 6.59863 14.2227 14.6768zM328.334 434.091
c0 -7.85059 -6.39941 -14.2227 -14.2217 -14.2227h-113.778c-7.87891 0 -14.2217 6.37207 -14.2217 14.2227v0c0 7.85059 6.34277 14.2217 14.2217 14.2217h113.778c7.82227 0 14.2217 -6.37109 14.2217 -14.2217v0zM356.722 362.979
c0 -7.85059 -6.34277 -14.2217 -14.165 -14.2217h-170.667c-7.87891 0 -14.2217 6.37109 -14.2217 14.2217v0c0 7.85059 6.34277 14.2227 14.2217 14.2227h170.667c7.82227 0 14.165 -6.37207 14.165 -14.2227v0zM356.722 320.312
c0 -7.85059 -6.34277 -14.2217 -14.165 -14.2217h-170.667c-7.87891 0 -14.2217 6.37109 -14.2217 14.2217v0c0 7.85059 6.34277 14.2227 14.2217 14.2227h170.667c7.82227 0 14.165 -6.37207 14.165 -14.2227v0zM356.722 277.646
c0 -7.85059 -6.34277 -14.2227 -14.165 -14.2227h-170.667c-7.87891 0 -14.2217 6.37207 -14.2217 14.2227v0c0 7.85059 6.34277 14.2217 14.2217 14.2217h170.667c7.82227 0 14.165 -6.37109 14.165 -14.2217v0zM356.722 234.979
c0 -7.85059 -6.34277 -14.2217 -14.165 -14.2217h-170.667c-7.87891 0 -14.2217 6.37109 -14.2217 14.2217v0c0 7.85059 6.34277 14.2227 14.2217 14.2227h170.667c7.82227 0 14.165 -6.37207 14.165 -14.2227v0zM356.722 192.312
c0 -7.85059 -6.34277 -14.2217 -14.165 -14.2217h-170.667c-7.87891 0 -14.2217 6.37109 -14.2217 14.2217v0c0 7.85059 6.34277 14.2227 14.2217 14.2227h170.667c7.82227 0 14.165 -6.37207 14.165 -14.2227v0zM356.722 149.646
c0 -7.85059 -6.34277 -14.2227 -14.165 -14.2227h-170.667c-7.87891 0 -14.2217 6.37207 -14.2217 14.2227v0c0 7.85059 6.34277 14.2217 14.2217 14.2217h170.667c7.82227 0 14.165 -6.37109 14.165 -14.2217v0zM356.722 106.979
c0 -7.85059 -6.34277 -14.2217 -14.165 -14.2217h-170.667c-7.87891 0 -14.2217 6.37109 -14.2217 14.2217v0c0 7.85059 6.34277 14.2227 14.2217 14.2227h170.667c7.82227 0 14.165 -6.37207 14.165 -14.2227v0zM356.722 64.3125
c0 -7.85059 -6.34277 -14.2217 -14.165 -14.2217h-170.667c-7.87891 0 -14.2217 6.37109 -14.2217 14.2217v0c0 7.85059 6.34277 14.2227 14.2217 14.2227h170.667c7.82227 0 14.165 -6.37207 14.165 -14.2227v0zM356.722 21.6465
c0 -7.85059 -6.34277 -14.2227 -14.165 -14.2227h-170.667c-7.87891 0 -14.2217 6.37207 -14.2217 14.2227v0c0 7.85059 6.34277 14.2217 14.2217 14.2217h170.667c7.82227 0 14.165 -6.37109 14.165 -14.2217v0zM356.722 -21.0205
c0 -7.85059 -6.34277 -14.2217 -14.165 -14.2217h-170.667c-7.87891 0 -14.2217 6.37109 -14.2217 14.2217v0c0 7.85059 6.34277 14.2227 14.2217 14.2227h170.667c7.82227 0 14.165 -6.37207 14.165 -14.2227v0z" />
    <glyph glyph-name="uniF107" unicode="&#xf107;" 
d="M332.912 284.472h-0.0078125l-162.4 -162.392c-8.94434 -8.93652 -8.94434 -23.5117 0 -32.4561c8.95996 -8.95996 23.5205 -8.95996 32.4883 0l194.888 194.848c26.8564 26.8398 26.8564 70.5527 0 97.416c-26.8643 26.8721 -70.584 26.8721 -97.4395 0
l-204.641 -204.584l0.0244141 -0.03125c-0.144531 -0.136719 -0.295898 -0.272461 -0.448242 -0.424805c-44.5283 -44.5273 -44.5283 -116.968 0 -161.487c44.5439 -44.5283 117 -44.5283 161.536 0c0.143555 0.135742 0.271484 0.288086 0.423828 0.423828l139.664 139.632
l32.4961 -32.4561l-139.664 -139.648l-0.015625 0.0166016c-0.152344 -0.160156 -0.272461 -0.303711 -0.408203 -0.44043c-62.5605 -62.5273 -163.968 -62.5273 -226.496 0c-62.5518 62.5283 -62.5518 163.912 0 226.456
c0.135742 0.136719 0.295898 0.272461 0.439453 0.423828l204.616 204.593c44.8398 44.8477 117.561 44.8477 162.393 0c44.8555 -44.832 44.8555 -117.528 0 -162.36l-194.889 -194.856c-26.9121 -26.8955 -70.5361 -26.8955 -97.4395 0
c-26.9043 26.8965 -26.9043 70.5283 0 97.4248l162.408 162.367z" />
    <glyph glyph-name="uniF131" unicode="&#xf131;" 
d="M187.008 154.215c0 -7.06641 -5.73438 -12.8008 -12.7998 -12.8008v0c-7.06543 0 -12.7998 5.73438 -12.7998 12.8008v128c0 7.06543 5.73438 12.7998 12.7998 12.7998v0c7.06543 0 12.7998 -5.73438 12.7998 -12.7998v-128zM315.008 154.215
c0 -7.06641 -5.73438 -12.8008 -12.7998 -12.8008v0c-7.06543 0 -12.7998 5.73438 -12.7998 12.8008v128c0 7.06543 5.73438 12.7998 12.7998 12.7998v0c7.06543 0 12.7998 -5.73438 12.7998 -12.7998v-128zM263.808 154.215
c0 -7.06641 -5.73438 -12.8008 -12.7998 -12.8008v0c-7.06543 0 -12.7998 5.73438 -12.7998 12.8008v128c0 7.06543 5.73438 12.7998 12.7998 12.7998v0c7.06543 0 12.7998 -5.73438 12.7998 -12.7998v-128zM452.25 13.4141h12.7744h38.374
s-11.418 -25.5996 -25.5742 -25.5996h-409.344c-14.1572 0 -60.6729 23.6289 -60.6729 37.7598v409.754c0 14.1309 46.5156 13.2861 60.6729 13.2861h409.369c14.1309 0 25.5742 0 25.5742 -25.5996h-38.374h-12.7998h-370.97c-7.06543 0 -47.8721 25.5996 -47.8721 0
v-384.641c0 -7.06543 40.8066 -24.96 47.8721 -24.96h370.97zM212.608 423.015v25.5996h256v-25.5996h-256zM212.608 -12.1855v25.5996h256v-25.5996h-256z" />
    <glyph glyph-name="uniF13B" unicode="&#xf13b;" 
d="M512 306.752h-0.0078125l-89.376 -89.376l57.376 -57.376l-43.3125 -43.3115l-256 256l43.3125 43.3115l57.376 -57.376l89.376 89.376l45.248 -45.248l-89.376 -89.376l50.752 -50.752l89.376 89.376zM397.016 111.104l0.00878906 -0.0078125
c-57.4561 -47.9121 -146.232 -102.264 -222.616 -64.6953l-66.1201 -66.1201c-15.5518 -15.5605 -41.0078 -15.5605 -56.5684 0l-7.43164 7.43164c-15.5518 15.5518 -15.5518 41.0078 0 56.5684l66.1201 66.1279c-37.5684 76.3838 16.7842 165.16 64.6953 222.607z" />
    <glyph glyph-name="uniF137" unicode="&#xf137;" 
d="M256 416c141.384 0 256 -114.616 256 -256c0 -96.4004 -53.2881 -180.336 -132.008 -224h-247.992c-78.7119 43.6641 -132 127.6 -132 224c0 141.384 114.616 256 256 256zM400.96 15.04c38.7197 38.7197 60.04 90.2002 60.04 144.96h-45v32h42.5195
c-3.50391 22.4961 -10.6953 44.0723 -21.2793 64h-53.2402v32h32.1436c-4.71973 5.87988 -9.77539 11.5518 -15.1836 16.96c-23.1123 23.1123 -50.7676 40.0156 -80.96 49.8965v-34.8564h-32v42.5195c-10.4883 1.63281 -21.1836 2.48047 -32 2.48047
s-21.5117 -0.847656 -32 -2.48047v-42.5195h-32v34.8564c-30.1836 -9.88086 -57.8477 -26.7842 -80.96 -49.8965c-5.4082 -5.4082 -10.4639 -11.0723 -15.1836 -16.96h32.1436v-32h-53.2402c-10.584 -19.9277 -17.7754 -41.5039 -21.2793 -64h42.5195v-32h-45
c0 -54.7598 21.3203 -106.24 60.04 -144.96c5.35156 -5.35156 10.96 -10.3604 16.7842 -15.04h96.1758l18.2881 256h27.4238l18.2881 -256h96.1758c5.81641 4.67969 11.4238 9.68848 16.7764 15.04h0.0078125z" />
    <glyph glyph-name="uniF117" unicode="&#xf117;" 
d="M288 320h224v-352h-512v416h224zM256 208l-112 -112h80v-128h64v128h80z" />
    <glyph glyph-name="uniF103" unicode="&#xf103;" 
d="M384.342 -59.8467c-5.54688 -5.51855 -14.5645 -5.51855 -20.1104 0l-241.551 241.721c-5.54688 5.54688 -5.54688 14.5635 0 20.1104v0c5.54688 5.51758 14.5352 5.51758 20.082 0l241.579 -241.722c5.5459 -5.57422 5.5459 -14.5635 0 -20.1094v0zM122.767 181.931
c-5.54688 5.54688 -5.54688 14.5635 0 20.1104l241.664 241.806c5.5459 5.54688 14.5635 5.51855 20.1094 0v0c5.54688 -5.5459 5.54688 -14.5635 0 -20.1094l-241.664 -241.807c-5.5459 -5.5752 -14.5342 -5.54688 -20.1094 0v0z" />
    <glyph glyph-name="uniF12A" unicode="&#xf12a;" 
d="M160 416h-128v-128h128v128zM192 448v0v-192h-192v192h192zM64 384h64v-64h-64v64zM480 416h-128v-128h128v128zM512 448v0v-192h-192v192h192zM384 384h64v-64h-64v64zM160 96h-128v-128h128v128zM192 128v0v-192h-192v192h192zM64 64h64v-64h-64v64zM224 448h32v-32
h-32v32zM256 416h32v-32h-32v32zM224 384h32v-32h-32v32zM256 352h32v-32h-32v32zM224 320h32v-32h-32v32zM256 288h32v-32h-32v32zM224 256h32v-32h-32v32zM224 192h32v-32h-32v32zM256 160h32v-32h-32v32zM224 128h32v-32h-32v32zM256 96h32v-32h-32v32zM224 64h32v-32
h-32v32zM256 32h32v-32h-32v32zM224 0h32v-32h-32v32zM256 -32h32v-32h-32v32zM480 192h32v-32h-32v32zM32 192h32v-32h-32v32zM64 224h32v-32h-32v32zM0 224h32v-32h-32v32zM128 224h32v-32h-32v32zM160 192h32v-32h-32v32zM192 224h32v-32h-32v32zM288 192h32v-32h-32v32z
M320 224h32v-32h-32v32zM352 192h32v-32h-32v32zM384 224h32v-32h-32v32zM416 192h32v-32h-32v32zM448 224h32v-32h-32v32zM480 128h32v-32h-32v32zM288 128h32v-32h-32v32zM320 160h32v-32h-32v32zM352 128h32v-32h-32v32zM416 128h32v-32h-32v32zM448 160h32v-32h-32v32z
M480 64h32v-32h-32v32zM288 64h32v-32h-32v32zM320 96h32v-32h-32v32zM384 96h32v-32h-32v32zM416 64h32v-32h-32v32zM448 96h32v-32h-32v32zM480 0h32v-32h-32v32zM320 32h32v-32h-32v32zM352 0h32v-32h-32v32zM384 32h32v-32h-32v32zM416 0h32v-32h-32v32zM320 -32h32v-32
h-32v32zM384 -32h32v-32h-32v32zM448 -32h32v-32h-32v32z" />
    <glyph glyph-name="uniF10E" unicode="&#xf10e;" 
d="M508.188 -59.4209c-5.54688 -5.5459 -14.5635 -5.5459 -20.1104 0l-483.556 483.556c-5.54688 5.54688 -5.51758 14.5635 0 20.1104v0c5.54688 5.54688 14.5635 5.54688 20.1104 0l483.556 -483.556c5.5752 -5.51758 5.5752 -14.5352 0 -20.1104v0zM4.52246 -59.4209
c-5.54688 5.54688 -5.54688 14.5645 0 20.1104l483.556 483.556c5.54688 5.54688 14.5635 5.54688 20.1104 0v0c5.54688 -5.54688 5.54688 -14.5635 0 -20.1104l-483.556 -483.556c-5.54688 -5.51758 -14.5352 -5.51758 -20.1104 0v0z" />
    <glyph glyph-name="uniF136" unicode="&#xf136;" 
d="M256 416c141.384 0 256 -114.616 256 -256c0 -96.4004 -53.2881 -180.336 -132.008 -224h-247.992c-78.7119 43.6641 -132 127.6 -132 224c0 141.384 114.616 256 256 256zM400.96 15.04c38.7197 38.7197 60.04 90.2002 60.04 144.96h-45v32h42.5195
c-3.50391 22.4961 -10.6953 44.0723 -21.2793 64h-53.2402v32h32.1436c-4.71973 5.87988 -9.77539 11.5518 -15.1836 16.96c-23.1123 23.1123 -50.7676 40.0156 -80.96 49.8965v-34.8564h-32v42.5195c-10.4883 1.63281 -21.1836 2.48047 -32 2.48047
s-21.5117 -0.847656 -32 -2.48047v-42.5195h-32v34.8564c-30.1836 -9.88086 -57.8477 -26.7842 -80.96 -49.8965c-5.4082 -5.4082 -10.4639 -11.0723 -15.1836 -16.96h32.1436v-32h-53.2402c-10.584 -19.9277 -17.7754 -41.5039 -21.2793 -64h42.5195v-32h-45
c0 -54.7598 21.3203 -106.24 60.04 -144.96c5.35156 -5.35156 10.96 -10.3604 16.7842 -15.04h96.1758l18.2881 256h27.4238l18.2881 -256h96.1758c5.81641 4.67969 11.4238 9.68848 16.7764 15.04h0.0078125z" />
    <glyph glyph-name="uniF122" unicode="&#xf122;" 
d="M256 416c141.384 0 256 -93.1279 256 -208s-114.616 -208 -256 -208c-13.5762 0 -26.9043 0.864258 -39.9121 2.51953c-54.9922 -54.9912 -120.624 -64.8477 -184.088 -66.2959v13.4561c34.2725 16.792 64 47.3682 64 82.3203
c0 4.87988 -0.375977 9.66406 -1.08008 14.3516c-57.8955 38.1367 -94.9199 96.376 -94.9199 161.648c0 114.872 114.616 208 256 208z" />
    <glyph glyph-name="uniF10F" unicode="&#xf10f;" 
d="M512 119.232c0 -48.1201 -38.9355 -87.1367 -87.0078 -87.2246l-328.128 -0.0078125c-53.4961 0 -96.8643 43.3916 -96.8643 96.9199s43.3682 96.9199 96.8643 96.9199c5.90332 0 11.6797 -0.551758 17.2881 -1.56738
c-0.44043 3.10352 -0.680664 6.26367 -0.680664 9.47949c0 36.9277 29.9199 66.8643 66.8242 66.8643c21.5117 0 40.6318 -10.1758 52.8564 -25.9766c21.792 27.624 55.5273 45.3682 93.4238 45.3682c64.6963 0 117.304 -51.6797 118.928 -116.032
c38.1602 -9.2959 66.4961 -43.6953 66.4961 -84.7432z" />
    <glyph glyph-name="uniF130" unicode="&#xf130;" horiz-adv-x="511" 
d="M408.889 335.104c15.7588 0 28.4443 -12.7139 28.4443 -28.4443v-341.333c0 -15.7295 -12.7139 -28.4443 -28.4443 -28.4443h-170.666c-5.34766 0 -10.0127 1.82031 -14.2227 4.35156c-4.23828 -2.53125 -8.93164 -4.35156 -14.2217 -4.35156h-170.667
c-15.7588 0 -28.4727 12.7148 -28.4727 28.4443v455.111c0 15.7012 12.7432 28.4443 28.4727 28.4443h170.667c15.7295 0 28.4443 -12.7432 28.4443 -28.4443v-85.334h170.666zM195.556 -63.1182c7.85059 0 14.2227 6.37109 14.2227 14.2217v355.556v99.5557
c0 7.82227 -6.40039 14.2227 -14.2227 14.2227h-142.223c-7.87891 0 -14.2217 -6.40039 -14.2217 -14.2227v-455.111c0 -7.85059 6.34277 -14.2217 14.2217 -14.2217h142.223zM408.889 -48.8965v341.334c0 7.82227 -6.37109 14.2217 -14.1934 14.2217h-142.223
c-7.87891 0 -14.2217 -6.39941 -14.2217 -14.2217v-341.334c0 -7.85059 6.34277 -14.2217 14.2217 -14.2217h142.223c7.82227 0 14.1934 6.37109 14.1934 14.2217zM480 -48.8965c0 -7.85059 -6.34277 -14.2217 -14.2217 -14.2217h-483.556
c-7.87988 0 -14.2227 6.37109 -14.2227 14.2217v0c0 7.85156 6.34277 14.2227 14.2227 14.2227h483.556c7.85059 0 14.2217 -6.34277 14.2217 -14.2227v0zM152.832 320.882c0 -7.85059 -6.34277 -14.2227 -14.2227 -14.2227h-28.4443
c-7.82227 0 -14.2217 6.37207 -14.2217 14.2227v28.4443c0 7.85059 6.39941 14.2227 14.2217 14.2227h28.4443c7.87988 0 14.2227 -6.37207 14.2227 -14.2227v-28.4443zM152.832 207.104c0 -7.85059 -6.34277 -14.2217 -14.2227 -14.2217h-28.4443
c-7.82227 0 -14.2217 6.37109 -14.2217 14.2217v28.4453c0 7.85059 6.39941 14.2217 14.2217 14.2217h28.4443c7.87988 0 14.2227 -6.37109 14.2227 -14.2217v-28.4453zM152.832 93.3262c0 -7.85059 -6.34277 -14.2227 -14.2227 -14.2227h-28.4443
c-7.82227 0 -14.2217 6.37207 -14.2217 14.2227v28.4443c0 7.85059 6.39941 14.2227 14.2217 14.2227h28.4443c7.87988 0 14.2227 -6.37207 14.2227 -14.2227v-28.4443zM352.312 207.104c0 -7.85059 -6.39941 -14.2217 -14.2217 -14.2217h-28.4443
c-7.87891 0 -14.2227 6.37109 -14.2227 14.2217v28.4453c0 7.85059 6.34375 14.2217 14.2227 14.2217h28.4443c7.82227 0 14.2217 -6.37109 14.2217 -14.2217v-28.4453zM352.312 93.3262c0 -7.85059 -6.39941 -14.2227 -14.2217 -14.2227h-28.4443
c-7.87891 0 -14.2227 6.37207 -14.2227 14.2227v28.4443c0 7.85059 6.34375 14.2227 14.2227 14.2227h28.4443c7.82227 0 14.2217 -6.37207 14.2217 -14.2227v-28.4443z" />
    <glyph glyph-name="uniF116" unicode="&#xf116;" 
d="M256 32c17.6719 0 32 -14.3281 32 -32v-32c0 -17.6719 -14.3281 -32 -32 -32s-32 14.3281 -32 32v32c0 17.6719 14.3281 32 32 32zM256 352c-17.6719 0 -32 14.3281 -32 32v32c0 17.6719 14.3281 32 32 32s32 -14.3281 32 -32v-32c0 -17.6719 -14.3281 -32 -32 -32z
M480 224c17.6719 0 32 -14.3281 32 -32s-14.3281 -32 -32 -32h-32c-17.6719 0 -32 14.3281 -32 32s14.3281 32 32 32h32zM96 192c0 -17.6719 -14.3281 -32 -32 -32h-32c-17.6719 0 -32 14.3281 -32 32s14.3281 32 32 32h32c17.6719 0 32 -14.3281 32 -32zM414.392 78.8643
l22.624 -22.6318c12.4961 -12.4961 12.4961 -32.7607 0 -45.2568c-12.4961 -12.4951 -32.7598 -12.4951 -45.2559 0l-22.624 22.624c-12.4961 12.4961 -12.4961 32.7607 0 45.2568c12.4961 12.4951 32.7607 12.4951 45.2559 0v0.0078125zM97.6084 305.136l-22.6328 22.6318
c-12.4951 12.4961 -12.4951 32.7607 0 45.2568c12.4961 12.4951 32.7607 12.4951 45.2568 0l22.624 -22.6328c12.4951 -12.4951 12.4951 -32.7598 0 -45.2559c-12.4961 -12.4961 -32.7607 -12.4961 -45.2568 0h0.00878906zM414.392 305.136
c-12.4951 -12.4961 -32.7598 -12.4961 -45.2559 0s-12.4961 32.7607 0 45.2559l22.624 22.624c12.4961 12.4961 32.7598 12.4961 45.2559 0s12.4961 -32.7598 0 -45.2559zM97.6084 78.8643c12.4951 12.4961 32.7598 12.4961 45.2559 0s12.4961 -32.7607 0 -45.2559
l-22.624 -22.624c-12.4961 -12.4961 -32.7598 -12.4961 -45.2559 0s-12.4961 32.7598 0 45.2559l22.6318 22.6318zM256 320c70.6963 0 128 -57.3115 128 -128s-57.3115 -128 -128 -128c-70.6963 0 -128 57.3037 -128 128s57.3037 128 128 128zM256 112
c44.1836 0 80 35.8164 80 80s-35.8164 80 -80 80s-80 -35.8164 -80 -80s35.8164 -80 80 -80z" />
    <glyph glyph-name="uniF127" unicode="&#xf127;" 
d="M428.231 448c15.7295 0 28.4443 -12.7432 28.4443 -28.4443v-455.111c0 -15.7012 -12.7148 -28.4443 -28.4443 -28.4443h-341.334c-15.7295 0 -28.4443 12.7432 -28.4443 28.4443v455.111c0 15.7012 12.7148 28.4443 28.4443 28.4443h341.334zM428.231 -21.333v426.666
c0 7.85059 -6.34375 14.2227 -14.2227 14.2227h-312.889c-7.82227 0 -14.2227 -6.37207 -14.2227 -14.2227v-426.666c0 -7.85059 6.40039 -14.2227 14.2227 -14.2227h312.889c7.87891 0 14.2227 6.37207 14.2227 14.2227zM200.505 262.884
c0 -7.85059 -6.40039 -14.2227 -14.2227 -14.2227h-28.4443c-7.87891 0 -14.2217 6.37207 -14.2217 14.2227v28.4443c0 7.85059 6.34277 14.2217 14.2217 14.2217h28.4443c7.82227 0 14.2227 -6.37109 14.2227 -14.2217v-28.4443zM285.838 262.884
c0 -7.85059 -6.39941 -14.2227 -14.2217 -14.2227h-28.4443c-7.87988 0 -14.2227 6.37207 -14.2227 14.2227v28.4443c0 7.85059 6.34277 14.2217 14.2227 14.2217h28.4443c7.82227 0 14.2217 -6.37109 14.2217 -14.2217v-28.4443zM371.172 262.884
c0 -7.85059 -6.40039 -14.2227 -14.2227 -14.2227h-28.4443c-7.87891 0 -14.2227 6.37207 -14.2227 14.2227v28.4443c0 7.85059 6.34375 14.2217 14.2227 14.2217h28.4443c7.82227 0 14.2227 -6.37109 14.2227 -14.2217v-28.4443zM371.172 177.55
c0 -7.85059 -6.40039 -14.2217 -14.2227 -14.2217h-199.111c-7.87891 0 -14.2217 6.37109 -14.2217 14.2217v0c0 7.85156 6.34277 14.2227 14.2217 14.2227h199.111c7.85059 0 14.2227 -6.37109 14.2227 -14.2227v0zM371.172 92.4443
c0 -7.85059 -6.40039 -14.2217 -14.2227 -14.2217h-199.111c-7.87891 0 -14.2217 6.37109 -14.2217 14.2217v0c0 7.85059 6.34277 14.2227 14.2217 14.2227h199.111c7.85059 0 14.2227 -6.37207 14.2227 -14.2227v0z" />
    <glyph glyph-name="uniF134" unicode="&#xf134;" 
d="M508.496 121.992c2.27148 -2.83203 3.50391 -6.36035 3.50391 -9.99219v-144c0 -17.6719 -14.3281 -32 -32 -32h-448c-17.6719 0 -32 14.3281 -32 32v144c0 3.63184 1.23242 7.15234 3.50391 9.99219l128 160c3.04004 3.7998 7.63184 6.00781 12.4961 6.00781h224
c4.86426 0 9.45605 -2.21582 12.4961 -6.00781zM480 96v10.3838l-119.688 149.608h-208.623l-119.688 -149.608v-10.3838h112l64 -64h96l64 64h112z" />
    <glyph glyph-name="uniF13A" unicode="&#xf13a;" 
d="M432 448c26.4004 0 48 -21.5996 48 -48v-416c0 -26.4004 -21.5996 -48 -48 -48h-384c-26.4004 0 -48 21.5996 -48 48v416c0 26.4004 21.5996 48 48 48h384zM416 0v384h-352v-384h352zM128 224h224v-32h-224v32zM128 160h224v-32h-224v32zM128 96h224v-32h-224v32z
M128 288h224v-32h-224v32z" />
    <glyph glyph-name="uniF123" unicode="&#xf123;" 
d="M32 352h448v-96h-448v96zM32 224h448v-96h-448v96zM32 96h448v-96h-448v96z" />
    <glyph glyph-name="uniF10C" unicode="&#xf10c;" horiz-adv-x="511" 
d="M81.7783 167.339c0 -7.82227 -6.34375 -14.2227 -14.2227 -14.2227h-85.333c-7.82227 0 -14.2227 6.40039 -14.2227 14.2227v0c0 7.85059 6.40039 14.2217 14.2227 14.2217h85.333c7.87891 0 14.2227 -6.37109 14.2227 -14.2217v0zM110.223 224.228
c31.4307 0 56.8887 -25.4297 56.8887 -56.8887c0 -31.4316 -25.458 -56.8887 -56.8887 -56.8887c-31.4033 0 -56.8887 25.457 -56.8887 56.8887c0 31.4307 25.4854 56.8887 56.8887 56.8887zM110.223 138.895c15.7295 0 28.4443 12.7432 28.4443 28.4443
c0 15.7295 -12.7148 28.4443 -28.4443 28.4443c-15.7305 0 -28.4443 -12.7148 -28.4443 -28.4443c0 -15.7012 12.7139 -28.4443 28.4443 -28.4443zM366.223 167.339c0 7.85059 6.39941 14.2217 14.2217 14.2217h85.334c7.87891 0 14.2217 -6.37109 14.2217 -14.2217v0
c0 -7.82227 -6.34277 -14.2227 -14.2217 -14.2227h-85.334c-7.82227 0 -14.2217 6.40039 -14.2217 14.2227v0zM337.778 110.45c-31.4033 0 -56.8896 25.4854 -56.8896 56.8887c0 31.4307 25.4863 56.8887 56.8896 56.8887c31.4307 0 56.8887 -25.458 56.8887 -56.8887
c0 -31.4316 -25.458 -56.8887 -56.8887 -56.8887zM337.778 195.783c-15.7305 0 -28.4443 -12.7148 -28.4443 -28.4443c0 -15.7012 12.7139 -28.4443 28.4443 -28.4443c15.7295 0 28.4443 12.7432 28.4443 28.4443c0 15.7295 -12.7148 28.4443 -28.4443 28.4443z
M118.472 226.048c-6.85547 -3.81152 -15.5312 -1.39355 -19.3711 5.46191c-3.83984 6.82617 -1.39355 15.4736 5.43262 19.2852l198.543 111.019c6.88281 3.7832 15.5303 1.39355 19.3701 -5.46191c3.86816 -6.85449 1.42285 -15.502 -5.46094 -19.3135z" />
    <glyph glyph-name="uniF11E" unicode="&#xf11e;" 
d="M224 296c0 13.2002 10.7998 24 24 24h16c13.2002 0 24 -10.7998 24 -24v-16c0 -13.2002 -10.7998 -24 -24 -24h-16c-13.2002 0 -24 10.7998 -24 24v16zM320 64h-128v32h32v96h-32v32h96v-128h32v-32zM256 448c141.384 0 256 -114.616 256 -256s-114.616 -256 -256 -256
s-256 114.616 -256 256s114.616 256 256 256zM256 -16c114.872 0 208 93.1279 208 208s-93.1279 208 -208 208s-208 -93.1279 -208 -208s93.1279 -208 208 -208z" />
    <glyph glyph-name="uniF115" unicode="&#xf115;" 
d="M256 448c141.384 0 256 -35.8164 256 -80v-64c0 -44.1836 -114.616 -80 -256 -80s-256 35.8164 -256 80v64c0 44.1836 114.616 80 256 80zM256 176c141.384 0 256 35.8164 256 80v-96c0 -44.1836 -114.616 -80 -256 -80s-256 35.8164 -256 80v96
c0 -44.1836 114.616 -80 256 -80zM256 32c141.384 0 256 35.8164 256 80v-96c0 -44.1836 -114.616 -80 -256 -80s-256 35.8164 -256 80v96c0 -44.1836 114.616 -80 256 -80z" />
    <glyph glyph-name="uniF135" unicode="&#xf135;" 
d="M448 416v-32h-64l-160 -384h64v-32h-224v32h64l160 384h-64v32h224z" />
    <glyph glyph-name="uniF100" unicode="&#xf100;" 
d="M496 256c8.83984 0 16 -7.16016 16 -16v-96c0 -8.83984 -7.16016 -16 -16 -16h-176v-176c0 -8.83984 -7.16016 -16 -16 -16h-96c-8.83984 0 -16 7.16016 -16 16v176h-176c-8.83984 0 -16 7.16016 -16 16v96c0 8.83984 7.16016 16 16 16h176v176
c0 8.83984 7.16016 16 16 16h96c8.83984 0 16 -7.16016 16 -16v-176h176z" />
    <glyph glyph-name="uniF12F" unicode="&#xf12f;" 
d="M466.896 142.872h0.0078125c8.87207 -15.3682 21.3281 -27.3838 35.7197 -35.6162l-50.3125 -87.1436c-46.8232 26.792 -106.392 10.9521 -133.208 -35.5039c-8.84766 -15.3203 -13.0234 -32.0723 -12.9834 -48.6084h-100.624
c-0.280273 53.8799 -43.752 97.4805 -97.3525 97.4805c-17.7432 0 -34.376 -4.77637 -48.7031 -13.1289l-50.3125 87.1445c46.6162 27.1523 62.6719 86.6562 35.8564 133.112c-8.91992 15.4395 -21.4561 27.5039 -35.9443 35.7354l50.3115 87.1445
c46.8564 -26.9766 106.568 -11.1523 133.433 35.376c8.93555 15.4873 13.1123 32.4238 12.9756 49.1279h100.632c0 -54.1201 43.584 -97.9922 97.3525 -97.9922c17.832 0 34.5439 4.83203 48.9199 13.2559l50.3115 -87.1436
c-46.792 -27.0879 -62.9434 -86.7119 -36.0791 -133.24zM256 88.3359c57.2559 0 103.664 46.416 103.664 103.664s-46.4082 103.664 -103.664 103.664s-103.672 -46.4082 -103.672 -103.664s46.416 -103.664 103.672 -103.664z" />
    <glyph glyph-name="uniF11F" unicode="&#xf11f;" 
d="M455.48 252.444c0 -44.3164 -14.6484 -85.1338 -39.168 -118.215h0.114258l-2.38965 -3.01562c-1.84863 -2.41699 -3.69727 -4.86328 -5.66016 -7.19629l-141.966 -180.28c-5.54688 -5.54688 -14.5928 -5.54688 -20.1104 0l-141.967 180.28
c-1.96289 2.33301 -3.81152 4.7793 -5.66016 7.19629l-2.38965 3.01562h0.114258c-24.4912 33.0811 -39.1396 73.8984 -39.1396 118.215c0 109.967 89.1445 199.111 199.111 199.111c109.966 0 199.11 -89.1445 199.11 -199.111zM393.472 151.609
c20.9922 28.3301 33.5645 63.2314 33.5928 101.119c0 94.0947 -76.4297 170.354 -170.666 170.354s-170.667 -76.2598 -170.667 -170.354c0 -37.916 12.6006 -72.8174 33.5645 -101.119h-0.0849609l1.93359 -2.50391c1.65039 -2.07617 3.21484 -4.20898 4.94922 -6.22949
l121.657 -154.254c4.77832 -4.72168 12.4873 -4.75 17.2656 0l121.657 154.254c1.73535 2.02051 3.2998 4.125 4.94922 6.22949l1.93457 2.50391h-0.0859375zM256.114 323.556c39.2812 0 71.1104 -31.8574 71.1104 -71.1113c0 -39.2529 -31.8291 -71.1113 -71.1104 -71.1113
c-39.2822 0 -71.1113 31.8584 -71.1113 71.1113c0 39.2539 31.8291 71.1113 71.1113 71.1113zM256.114 209.777c23.5518 0 42.666 19.0869 42.666 42.667s-19.1143 42.667 -42.666 42.667c-23.5527 0 -42.667 -19.0869 -42.667 -42.667s19.1143 -42.667 42.667 -42.667z" />
    <glyph glyph-name="uniF11C" unicode="&#xf11c;" 
d="M288 320h224v-352h-512v416h224zM256 16l112 112h-80v128h-64v-128h-80z" />
    <glyph glyph-name="uniF111" unicode="&#xf111;" 
d="M173.312 448.37c80.2705 0 145.267 -71.3955 145.238 -159.289c0 -87.9502 -64.9678 -159.289 -145.238 -159.289c-80.1562 0 -145.18 71.3389 -145.18 159.289c0 87.9219 65.0518 159.289 145.18 159.289zM173.341 158.208c64.54 0 116.764 58.624 116.764 130.845
c0 72.2197 -52.252 130.844 -116.764 130.844c-64.4551 0 -116.736 -58.5947 -116.736 -130.844s52.252 -130.845 116.736 -130.845zM73.2158 194.617c47.9863 -57.1738 105.928 -51.3145 105.928 -51.2568c66.2178 -0.569336 92.7002 51.7119 92.7002 51.7119
c43.207 -10.8945 75.207 -49.9775 75.207 -96.541v-62.5771c0 -54.9834 -44.6006 -99.5557 -99.6699 -99.5557h-148.053c-55.0684 0 -99.6699 44.5723 -99.6699 99.5557v62.5771c0 45.9385 31.1758 84.6221 73.5576 96.0859zM177.807 135.311
c0 0 -64.1143 -1.47949 -98.5605 42.1543c-30.0371 -11.2637 -51.1143 -37.7744 -51.1143 -68.665v-69.6035c0 -41.0732 37.29 -74.4102 83.3135 -74.4102h123.79c46.0234 0 83.3428 33.3369 83.3428 74.4102v69.6035c0 30.9473 -21.1631 57.458 -51.2285 68.6934
c0 0 -33.9346 -43.5195 -89.543 -42.1826zM461.938 144.043c29.2129 -12.4307 49.7207 -41.2734 49.6924 -74.8945v-51.2285c0 -44.999 -36.5225 -81.4932 -81.5498 -81.4932h-96.7969c9.3584 8.16309 17.6357 17.6074 24.1494 28.4443h60.5303
c36.0391 0 65.251 26.6807 65.251 59.5908v52.5654c0 22.5283 -13.9941 41.7002 -34.1611 51.8262c-19.6836 -19.5703 -45.2559 -31.8291 -73.501 -33.4795v10.3828c0 6.11523 -0.59668 12.0889 -1.4502 17.9482c47.7578 2.75879 85.7881 46.9043 85.7881 101.404
c0 56.292 -40.4482 101.945 -90.4248 101.945c-8.875 0 -17.2656 -1.90625 -25.3154 -4.58008c-1.59277 9.47168 -3.81152 18.6885 -6.65625 27.6191c10.2119 3.12891 20.8213 5.37695 31.9717 5.37695c65.707 0 118.897 -58.4258 118.897 -130.39
c0 -30.8057 -10.1543 -58.71 -26.4248 -81.0381z" />
    <glyph glyph-name="uniF108" unicode="&#xf108;" 
d="M367.019 405.333c15.7295 0 28.4727 -13.1123 28.4727 -29.2979v-410.681c0 -16.1562 -12.7432 -29.3262 -28.4727 -29.3262h-227.527c-15.7012 0 -28.4443 13.1699 -28.4443 29.3262v410.652c0 16.2139 12.7432 29.3262 28.4443 29.3262h227.527zM367.019 -19.9678
v381.326c0 8.13477 -6.34277 14.6768 -14.2217 14.6768h-199.083c-7.82227 0 -14.2227 -6.57031 -14.2227 -14.6768v-381.326c0 -8.10645 6.40039 -14.6777 14.2227 -14.6777h199.083c7.87891 0 14.2217 6.59961 14.2217 14.6777zM324.352 433.777
c0 -7.85059 -6.34277 -14.2217 -14.2217 -14.2217h-113.749c-7.82227 0 -14.2227 6.37109 -14.2227 14.2217v0c0 7.85156 6.40039 14.2227 14.2227 14.2227h113.749c7.87891 -0.0283203 14.2217 -6.40039 14.2217 -14.2227v0z" />
    <glyph glyph-name="uniF129" unicode="&#xf129;" 
d="M512 306.752h-0.0078125l-89.376 -89.376l57.376 -57.376l-43.3125 -43.3115l-256 256l43.3125 43.3115l57.376 -57.376l89.376 89.376l45.248 -45.248l-89.376 -89.376l50.752 -50.752l89.376 89.376zM397.016 111.104l0.00878906 -0.0078125
c-57.4561 -47.9121 -146.232 -102.264 -222.616 -64.6953l-66.1201 -66.1201c-15.5518 -15.5605 -41.0078 -15.5605 -56.5684 0l-7.43164 7.43164c-15.5518 15.5518 -15.5518 41.0078 0 56.5684l66.1201 66.1279c-37.5684 76.3838 16.7842 165.16 64.6953 222.607z" />
    <glyph glyph-name="uniF120" unicode="&#xf120;" 
d="M256 448c141.384 0 256 -114.616 256 -256s-114.616 -256 -256 -256s-256 114.616 -256 256s114.616 256 256 256zM160 192c0 -53.0156 42.9844 -96 96 -96s96 42.9756 96 96s-42.9756 96 -96 96s-96 -42.9756 -96 -96zM462.992 106.264v0
c10.9521 26.4082 17.0078 55.3682 17.0078 85.7363s-6.05566 59.3281 -17.0078 85.7363l-88.7119 -36.7441c6.25586 -15.0879 9.71973 -31.6406 9.71973 -48.9922s-3.46387 -33.9043 -9.71973 -48.9922l88.7119 -36.7441v0zM341.736 398.992
c-26.4082 10.9521 -55.3682 17.0078 -85.7363 17.0078s-59.3281 -6.05566 -85.7363 -17.0078l36.7441 -88.7119c15.0879 6.25586 31.6406 9.71973 48.9922 9.71973s33.9043 -3.46387 48.9922 -9.71973l36.7441 88.7119v0v0zM49.0078 277.736
c-10.9521 -26.4082 -17.0078 -55.3682 -17.0078 -85.7363s6.05566 -59.3281 17.0078 -85.7363l88.7119 36.7441c-6.25586 15.0879 -9.71973 31.6406 -9.71973 48.9922s3.46387 33.8965 9.71973 48.9922zM170.264 -14.9922
c26.4082 -10.9521 55.3682 -17.0078 85.7363 -17.0078s59.3281 6.05566 85.7363 17.0078l-36.7441 88.7119c-15.0879 -6.25586 -31.6406 -9.71973 -48.9922 -9.71973s-33.8965 3.46387 -48.9922 9.71973z" />
    <glyph glyph-name="uniF10B" unicode="&#xf10b;" 
d="M113.778 195.101c0 -7.82227 -6.34375 -14.2227 -14.2227 -14.2227h-85.333c-7.82227 0 -14.2227 6.40039 -14.2227 14.2227v0c0 7.85059 6.40039 14.2217 14.2227 14.2217h85.333c7.87891 0 14.2227 -6.37109 14.2227 -14.2217v0zM142.223 251.989
c31.4307 0 56.8887 -25.458 56.8887 -56.8887c0 -31.4316 -25.458 -56.8887 -56.8887 -56.8887c-31.4023 0 -56.8887 25.457 -56.8887 56.8887c0 31.4307 25.4863 56.8887 56.8887 56.8887zM142.223 166.656c15.7295 0 28.4443 12.7432 28.4443 28.4443
c0 15.7295 -12.7148 28.4443 -28.4443 28.4443s-28.4443 -12.7148 -28.4443 -28.4443c0 -15.7012 12.7148 -28.4443 28.4443 -28.4443zM398.223 195.101c0 7.85059 6.39941 14.2217 14.2217 14.2217h85.334c7.87891 0 14.2217 -6.37109 14.2217 -14.2217v0
c0 -7.82227 -6.34277 -14.2227 -14.2217 -14.2227h-85.334c-7.82227 0 -14.2217 6.40039 -14.2217 14.2227v0zM369.778 138.212c-31.4033 0 -56.8887 25.457 -56.8887 56.8887c0 31.4307 25.4854 56.8887 56.8887 56.8887c31.4307 0 56.8887 -25.458 56.8887 -56.8887
c0 -31.4316 -25.458 -56.8887 -56.8887 -56.8887zM369.778 223.545c-15.7305 0 -28.4443 -12.7148 -28.4443 -28.4443c0 -15.7012 12.7139 -28.4443 28.4443 -28.4443c15.7295 0 28.4443 12.7432 28.4443 28.4443c0 15.7295 -12.7148 28.4443 -28.4443 28.4443z
M142.223 251.989c-7.82227 0 -14.2227 6.37207 -14.2227 14.2227s6.40039 14.2217 14.2227 14.2217h227.556c7.87891 0 14.2217 -6.37109 14.2217 -14.2217s-6.34277 -14.2227 -14.2217 -14.2227h-227.556z" />
    <glyph glyph-name="uniF141" unicode="&#xf141;" 
d="M128 352l-32 -32l-64 64v32h32zM160 448h32v-64h-32v64zM288 288h64v-32h-64v32zM320 384l-64 -64l-32 32l64 64h32v-32zM0 288h64v-32h-64v32zM160 160h32v-64h-32v64zM32 160l64 64l32 -32l-64 -64h-32v32zM505 7c9.33594 -9.33594 9.33594 -24.6084 0 -33.9443
l-30.0557 -30.0557c-9.33594 -9.33594 -24.6084 -9.33594 -33.9443 0l-318.056 318.056c-9.33594 9.33594 -9.33594 24.6084 0 33.9443l30.0557 30.0557c9.33594 9.33594 24.6084 9.33594 33.9443 0zM240 176l32 32l-96 96l-32 -32z" />
    <glyph glyph-name="uniF125" unicode="&#xf125;" 
d="M341.334 448c15.7295 0 28.4443 -12.7148 28.4443 -28.4443v-170.667c0 -15.7012 -12.7148 -28.4443 -28.4443 -28.4443h-170.667c-15.6729 0 -28.4443 12.7432 -28.4443 28.4443v170.667c0 15.7295 12.7715 28.4443 28.4443 28.4443h170.667zM341.334 263.111v142.222
c0 7.85059 -6.34375 14.2227 -14.2227 14.2227h-142.222c-7.82227 0 -14.2227 -6.37207 -14.2227 -14.2227v-142.222c0 -7.82227 6.40039 -14.2227 14.2227 -14.2227h142.222c7.87891 0 14.2227 6.40039 14.2227 14.2227zM455.111 177.948
c0 -7.85059 -6.34277 -14.2217 -14.2217 -14.2217h-369.778c-7.82227 0 -14.2217 6.37109 -14.2217 14.2217v0c0 7.85059 6.39941 14.2227 14.2217 14.2227h369.778c7.87891 0 14.2217 -6.37207 14.2217 -14.2227v0zM113.778 78.2227
c15.7295 0 28.4443 -12.7148 28.4443 -28.4453v-85.333c0 -15.7012 -12.7148 -28.4443 -28.4443 -28.4443h-85.333c-15.6738 0 -28.4453 12.7432 -28.4453 28.4443v85.333c0 15.7305 12.7715 28.4453 28.4453 28.4453h85.333zM113.778 -21.333v56.8887
c0 7.85059 -6.34375 14.2217 -14.2227 14.2217h-56.8887c-7.82227 0 -14.2217 -6.37109 -14.2217 -14.2217v-56.8887c0 -7.82227 6.39941 -14.2227 14.2217 -14.2227h56.8887c7.87891 0 14.2227 6.40039 14.2227 14.2227zM85.334 120.889
c0 -7.85059 -6.34375 -14.2217 -14.2227 -14.2217v0c-7.82227 0 -14.2217 6.37109 -14.2217 14.2217v56.8887c0 7.85156 6.39941 14.2227 14.2217 14.2227v0c7.87891 0 14.2227 -6.37109 14.2227 -14.2227v-56.8887zM298.667 78.2227
c15.7295 0 28.4443 -12.7148 28.4443 -28.4453v-85.333c0 -15.7012 -12.7148 -28.4443 -28.4443 -28.4443h-85.333c-15.6729 0 -28.4443 12.7432 -28.4443 28.4443v85.333c0 15.7305 12.7715 28.4453 28.4443 28.4453h85.333zM298.667 -21.333v56.8887
c0 7.85059 -6.34277 14.2217 -14.2217 14.2217h-56.8896c-7.82227 0 -14.2217 -6.37109 -14.2217 -14.2217v-56.8887c0 -7.82227 6.39941 -14.2227 14.2217 -14.2227h56.8896c7.87891 0 14.2217 6.40039 14.2217 14.2227zM270.223 120.889
c0 -7.85059 -6.34277 -14.2217 -14.2227 -14.2217v0c-7.82227 0 -14.2217 6.37109 -14.2217 14.2217v56.8887c0 7.85156 6.39941 14.2227 14.2217 14.2227v0c7.87988 0 14.2227 -6.37109 14.2227 -14.2227v-56.8887zM483.556 78.2227
c15.7305 0 28.4443 -12.7148 28.4443 -28.4453v-85.333c0 -15.7012 -12.7139 -28.4443 -28.4443 -28.4443h-85.333c-15.6729 0 -28.4443 12.7432 -28.4443 28.4443v85.333c0 15.7305 12.7715 28.4453 28.4443 28.4453h85.333zM483.556 -21.333v56.8887
c0 7.85059 -6.34277 14.2217 -14.2217 14.2217h-56.8887c-7.82227 0 -14.2227 -6.37109 -14.2227 -14.2217v-56.8887c0 -7.82227 6.40039 -14.2227 14.2227 -14.2227h56.8887c7.87891 0 14.2217 6.40039 14.2217 14.2227zM455.111 120.889
c0 -7.85059 -6.34277 -14.2217 -14.2217 -14.2217v0c-7.82227 0 -14.2227 6.37109 -14.2227 14.2217v56.8887c0 7.85156 6.40039 14.2227 14.2227 14.2227v0c7.87891 0 14.2217 -6.37109 14.2217 -14.2227v-56.8887z" />
    <glyph glyph-name="uniF132" unicode="&#xf132;" 
d="M288 94.6963c108.552 -8.87988 192 -62.2158 192 -126.696h-448c0 64.4883 83.4482 117.824 192 126.696v26.3916c-35.248 19.8564 -64 69.3838 -64 118.912c0 79.5283 0 144 96 144s96 -64.4717 96 -144c0 -49.5283 -28.752 -99.0479 -64 -118.912v-26.3916z" />
    <glyph glyph-name="uniF101" unicode="&#xf101;" 
d="M106.866 68.4092h301.312l-140.601 -128.626c-5.54688 -5.54688 -14.5635 -4.77832 -20.1104 0.767578zM257.536 448c121.003 0 219.051 -97.707 219.051 -218.197c0 -120.52 -98.0479 -218.197 -219.051 -218.197c-120.946 0 -218.994 97.6777 -218.994 218.197
c0 120.49 98.0479 218.197 218.994 218.197zM257.564 107.976c7.85059 0 14.2227 6.34277 14.2227 14.165s-6.37207 14.165 -14.2227 14.165s-14.2227 -6.34277 -14.2227 -14.165s6.37207 -14.165 14.2227 -14.165zM274.688 178.802v141.682
c0 7.82227 -6.37207 14.165 -14.2227 14.165s-14.2227 -6.34277 -14.2227 -14.165v-141.682c0 -7.82227 6.37207 -14.165 14.2227 -14.165s14.2227 6.34277 14.2227 14.165z" />
    <glyph glyph-name="uniF113" unicode="&#xf113;" 
d="M497.493 390.94c7.87891 0 14.2227 -6.37109 14.1943 -14.2227v-369.777c0 -7.85059 -6.34375 -14.2227 -14.2227 -14.2227h-42.667v-28.4443h-28.4443v-28.4443h-35.3848c-2.98633 15.7588 -16.2129 27.9043 -32.8818 27.9043
c-16.6113 0 -29.8379 -12.1455 -32.8242 -27.9043h-36.665c-2.9873 15.7588 -16.2139 27.9043 -32.8818 27.9043c-16.6123 0 -29.8389 -12.1455 -32.8252 -27.9043h-36.665c-2.98633 15.7588 -16.2129 27.9043 -32.8818 27.9043
c-16.6113 0 -29.8096 -12.1455 -32.8242 -27.9043h-35.4424v28.4443h-28.4443v28.4443h-42.667c-7.82227 0 -14.2217 6.37207 -14.2217 14.2227v369.777c0 7.85156 6.39941 14.2227 14.2217 14.2227h42.667v28.4443h28.4443v28.4443h35.4424
c2.98633 -15.7578 16.2129 -27.9033 32.8242 -27.9033c16.6689 0 29.8672 12.1455 32.8818 27.9033h36.6934c2.9873 -15.7578 16.2139 -27.9033 32.8252 -27.9033c16.668 0 29.8945 12.1455 32.8818 27.9033h36.665c2.98633 -15.7578 16.2129 -27.9033 32.8818 -27.9033
c16.6113 0 29.8096 12.1455 32.8242 27.9033h35.3848v-28.4443h28.4453v-28.4443h42.666zM237.056 405.333c-7.85059 0 -14.2217 -6.37109 -14.2217 -14.2217s6.39941 -14.2227 14.2217 -14.2227h37.3193c7.87891 0 14.2227 6.37207 14.2227 14.2227
s-6.34375 14.2217 -14.2227 14.2217h-37.3193zM172.146 -21.333c7.87891 0 14.2227 6.34277 14.2227 14.2217c0 7.85059 -6.37207 14.2227 -14.2227 14.2227h-37.3184c-7.82227 0 -14.2227 -6.37207 -14.2227 -14.2227s6.40039 -14.2217 14.2227 -14.2217h37.3184z
M376.604 -21.333c7.85059 0 14.2227 6.34277 14.1934 14.2217c0 7.85059 -6.37109 14.2227 -14.2217 14.2227h-37.3193c-7.82227 0 -14.2227 -6.37207 -14.2227 -14.2227s6.40039 -14.2217 14.2227 -14.2217h37.3477zM483.271 35.3848h-0.0576172v312.889
c0 7.85059 -6.34277 14.2227 -14.2217 14.2227h-77.71v1.96289c0 7.62305 -6.14453 13.8232 -13.8242 13.8232h-38.7695c-7.59473 0 -13.8242 -6.17188 -13.8242 -13.8232v-1.96289h-138.724v1.96289c0 7.62305 -6.20117 13.8232 -13.8242 13.8232h-38.7695
c-7.59473 0 -13.8242 -6.17188 -13.8242 -13.8232v-1.96289h-77.3408c-7.82227 0 -14.2217 -6.37207 -14.2217 -14.2227v-312.889c0 -7.85059 6.39941 -14.2217 14.2217 -14.2217h426.667c7.87891 0 14.2227 6.37109 14.2227 14.2217zM353.365 250.197
c14.1943 0 25.6855 -11.4629 25.6855 -25.6855v-120.917c0 -14.1934 -11.4912 -25.6855 -25.6855 -25.6855h-195.242c-14.166 0 -25.6572 11.4922 -25.6572 25.6855v120.917c0 14.2227 11.4912 25.6855 25.6572 25.6855h2.78711v-118.158
c0 -14.165 11.4912 -25.6855 25.6572 -25.6855h138.354c14.1934 0 25.6855 11.5205 25.6855 25.6855v118.158h2.75879zM255.772 134.855c-15.332 0 -27.7334 12.1738 -28.2168 27.335v140.032c0 2.44531 1.99121 4.4082 4.4375 4.4082
c1.16602 0 2.24707 -0.483398 3.01465 -1.25098h0.0283203c6.00195 -3.75488 13.085 -5.94531 20.7363 -5.94531s14.7061 2.16211 20.7363 5.94531c0.767578 0.739258 1.84863 1.25098 3.04297 1.25098c2.41797 0 4.38086 -1.96289 4.38086 -4.4082v-140.032
c-0.455078 -15.1328 -12.8857 -27.335 -28.1602 -27.335z" />
    <glyph glyph-name="uniF11A" unicode="&#xf11a;" 
d="M256 448c141.397 0 256 -114.603 256 -256s-114.603 -256 -256 -256s-256 114.603 -256 256s114.603 256 256 256zM256 -35.5557c125.668 0 227.556 101.888 227.556 227.556s-101.888 227.556 -227.556 227.556s-227.556 -101.888 -227.556 -227.556
s101.888 -227.556 227.556 -227.556zM426.667 192c0 -7.85059 -6.40039 -14.2227 -14.251 -14.2227h-312.86c-7.82227 0 -14.2227 6.37207 -14.2227 14.2227v0c0 7.85059 6.40039 14.2227 14.2227 14.2227h312.86c7.85059 0 14.251 -6.37207 14.251 -14.2227v0z" />
    <glyph glyph-name="uniF105" unicode="&#xf105;" horiz-adv-x="511" 
d="M224 448c141.396 0 256 -114.603 256 -256s-114.604 -256 -256 -256c-141.397 0 -256 114.603 -256 256s114.603 256 256 256zM224 -35.5557c125.695 0 227.555 101.888 227.555 227.556s-101.859 227.556 -227.555 227.556
c-125.696 0 -227.556 -101.888 -227.556 -227.556s101.859 -227.556 227.556 -227.556zM298.894 181.931c-5.54688 -5.54688 -14.5635 -5.54688 -20.1104 0l-100.551 100.579c-5.54688 5.54688 -5.54688 14.5645 0 20.1104v0c5.54688 5.54688 14.5635 5.54688 20.1104 0
l100.551 -100.579c5.5752 -5.54688 5.5752 -14.5352 0 -20.1104v0zM178.232 81.3799c-5.54688 5.5459 -5.54688 14.5635 0 20.1104l100.551 100.579c5.54688 5.54688 14.5635 5.54688 20.1104 0v0c5.5752 -5.54688 5.5752 -14.5635 0 -20.1104l-100.551 -100.579
c-5.5752 -5.54688 -14.5635 -5.54688 -20.1104 0v0z" />
    <glyph glyph-name="uniF114" unicode="&#xf114;" 
d="M497.493 390.94c7.87891 0 14.2227 -6.37109 14.1943 -14.2227v-369.777c0 -7.85059 -6.34375 -14.2227 -14.2227 -14.2227h-42.667v-28.4443h-28.4443v-28.4443h-35.3848c-2.98633 15.7588 -16.2129 27.9043 -32.8818 27.9043
c-16.6113 0 -29.8379 -12.1455 -32.8242 -27.9043h-36.665c-2.9873 15.7588 -16.2139 27.9043 -32.8818 27.9043c-16.6123 0 -29.8389 -12.1455 -32.8252 -27.9043h-36.665c-2.98633 15.7588 -16.2129 27.9043 -32.8818 27.9043
c-16.6113 0 -29.8096 -12.1455 -32.8242 -27.9043h-35.4424v28.4443h-28.4443v28.4443h-42.667c-7.82227 0 -14.2217 6.37207 -14.2217 14.2227v369.777c0 7.85156 6.39941 14.2227 14.2217 14.2227h42.667v28.4443h28.4443v28.4443h35.4424
c2.98633 -15.7578 16.2129 -27.9033 32.8242 -27.9033c16.6689 0 29.8672 12.1455 32.8818 27.9033h36.6934c2.9873 -15.7578 16.2139 -27.9033 32.8252 -27.9033c16.668 0 29.8945 12.1455 32.8818 27.9033h36.665c2.98633 -15.7578 16.2129 -27.9033 32.8818 -27.9033
c16.6113 0 29.8096 12.1455 32.8242 27.9033h35.3848v-28.4443h28.4453v-28.4443h42.666zM237.056 405.333c-7.85059 0 -14.2217 -6.37109 -14.2217 -14.2217s6.39941 -14.2227 14.2217 -14.2227h37.3193c7.87891 0 14.2227 6.37207 14.2227 14.2227
s-6.34375 14.2217 -14.2227 14.2217h-37.3193zM172.146 -21.333c7.87891 0 14.2227 6.34277 14.2227 14.2217c0 7.85059 -6.37207 14.2227 -14.2227 14.2227h-37.3184c-7.82227 0 -14.2227 -6.37207 -14.2227 -14.2227s6.40039 -14.2217 14.2227 -14.2217h37.3184z
M376.604 -21.333c7.85059 0 14.2227 6.34277 14.1934 14.2217c0 7.85059 -6.37109 14.2227 -14.2217 14.2227h-37.3193c-7.82227 0 -14.2227 -6.37207 -14.2227 -14.2227s6.40039 -14.2217 14.2227 -14.2217h37.3477zM483.271 35.3848h-0.0576172v312.889
c0 7.85059 -6.34277 14.2227 -14.2217 14.2227h-77.71v1.96289c0 7.62305 -6.14453 13.8232 -13.8242 13.8232h-38.7695c-7.59473 0 -13.8242 -6.17188 -13.8242 -13.8232v-1.96289h-138.724v1.96289c0 7.62305 -6.20117 13.8232 -13.8242 13.8232h-38.7695
c-7.59473 0 -13.8242 -6.17188 -13.8242 -13.8232v-1.96289h-77.3408c-7.82227 0 -14.2217 -6.37207 -14.2217 -14.2227v-312.889c0 -7.85059 6.39941 -14.2217 14.2217 -14.2217h426.667c7.87891 0 14.2227 6.37109 14.2227 14.2217zM353.365 250.197
c14.1943 0 25.6855 -11.4629 25.6855 -25.6855v-120.917c0 -14.1934 -11.4912 -25.6855 -25.6855 -25.6855h-195.242c-14.166 0 -25.6572 11.4922 -25.6572 25.6855v120.917c0 14.2227 11.4912 25.6855 25.6572 25.6855h2.78711v-118.158
c0 -14.165 11.4912 -25.6855 25.6572 -25.6855h138.354c14.1934 0 25.6855 11.5205 25.6855 25.6855v118.158h2.75879zM255.772 134.855c-15.332 0 -27.7334 12.1738 -28.2168 27.335v140.032c0 2.44531 1.99121 4.4082 4.4375 4.4082
c1.16602 0 2.24707 -0.483398 3.01465 -1.25098h0.0283203c6.00195 -3.75488 13.085 -5.94531 20.7363 -5.94531s14.7061 2.16211 20.7363 5.94531c0.767578 0.739258 1.84863 1.25098 3.04297 1.25098c2.41797 0 4.38086 -1.96289 4.38086 -4.4082v-140.032
c-0.455078 -15.1328 -12.8857 -27.335 -28.1602 -27.335z" />
    <glyph glyph-name="uniF13C" unicode="&#xf13c;" 
d="M284.616 58.8721v0.0634766v-0.0634766zM285.296 40.7275c-0.0078125 0.120117 -0.0078125 0.232422 -0.015625 0.352539c0.0078125 -0.120117 0.0078125 -0.232422 0.015625 -0.352539zM284.904 49.8398c0 0.0878906 -0.0078125 0.175781 -0.0078125 0.263672
c0.0078125 -0.0878906 0.0078125 -0.175781 0.0078125 -0.263672zM480 448h-0.0078125c17.5996 0 32 -14.4004 32 -32v-448c0 -17.5996 -14.4004 -32 -32 -32h-200.952h-0.0644531h-0.0634766h-246.912c-17.5996 0 -32 14.4004 -32 32v448c0 17.5996 14.4004 32 32 32h448z
M96 336v-32c0 -8.83984 7.16797 -16 16 -16s16 7.16016 16 16v32c0 8.83203 -7.16797 16 -16 16s-16 -7.16797 -16 -16zM480 -32v448h-200.032c-22.0713 -31.0156 -38.6396 -80.5283 -48.0713 -143.904c-4.93652 -33.1914 -6.78418 -62.792 -7.48047 -80.0957h47.584
c4.51953 0 8.83203 -1.91211 11.8643 -5.26367c3.03223 -3.35254 4.50391 -7.83203 4.05566 -12.3281c-0.0722656 -0.744141 -4.6084 -47.6084 -3.51172 -106.704c-9.38379 -1.12793 -18.8643 -1.71191 -28.4082 -1.71191c-58.04 0 -113.944 21.1357 -157.416 59.4961
c-7.45605 6.57617 -18.832 5.87207 -25.4082 -1.58398s-5.87207 -18.832 1.58398 -25.4082c50.0479 -44.1758 114.416 -68.5039 181.24 -68.5039c9.99219 0 19.9355 0.55957 29.7842 1.63184c0 0.0644531 -0.0078125 0.120117 -0.0078125 0.175781
c1.23926 -21.0635 3.34375 -42.7598 6.69531 -63.7998h187.528zM400 288c-8.83984 0 -16 7.16016 -16 16v32c0 8.83203 7.16016 16 16 16s16 -7.16797 16 -16v-32c0 -8.83984 -7.16016 -16 -16 -16zM270.248 30.3838
c-1.82422 -0.0957031 -3.64844 -0.167969 -5.48047 -0.223633c1.83203 0.0556641 3.65625 0.135742 5.48047 0.223633zM256 30c2.34375 0 4.68848 0.0400391 7.02441 0.0957031c-2.33594 -0.0634766 -4.68066 -0.0957031 -7.02441 -0.0957031zM269.536 66.4004
c0.391602 0.0234375 0.78418 0.0400391 1.17578 0.0634766c-0.391602 -0.0234375 -0.78418 -0.0400391 -1.17578 -0.0634766zM262.544 66.1035c0.536133 0.0166016 1.07227 0.0400391 1.6084 0.0566406c-0.536133 -0.0166016 -1.07227 -0.0400391 -1.6084 -0.0566406z
M438.824 123.912c6.57617 -7.45605 5.87207 -18.832 -1.58398 -25.4082c-42.5605 -37.5684 -95.4805 -60.7676 -151.456 -66.8721c-0.728516 12.3359 -1.16016 24.4404 -1.37598 36.0801c47.6797 5.71973 92.6875 25.7285 129.008 57.7842
c7.45605 6.57617 18.832 5.87207 25.4082 -1.58398zM285.752 31.624c-2.30371 -0.248047 -4.6084 -0.47168 -6.91992 -0.664062c2.31152 0.192383 4.62402 0.408203 6.91992 0.664062zM277.744 30.8799c-1.95215 -0.160156 -3.91211 -0.288086 -5.87207 -0.399414
c1.95996 0.111328 3.91992 0.24707 5.87207 0.399414z" />
    <glyph glyph-name="uniF126" unicode="&#xf126;" 
d="M428.231 448c15.7295 0 28.4443 -12.7432 28.4443 -28.4443v-455.111c0 -15.7012 -12.7148 -28.4443 -28.4443 -28.4443h-341.334c-15.7295 0 -28.4443 12.7432 -28.4443 28.4443v455.111c0 15.7012 12.7148 28.4443 28.4443 28.4443h341.334zM428.231 -21.333v426.666
c0 7.85059 -6.34375 14.2227 -14.2227 14.2227h-312.889c-7.82227 0 -14.2227 -6.37207 -14.2227 -14.2227v-426.666c0 -7.85059 6.40039 -14.2227 14.2227 -14.2227h312.889c7.87891 0 14.2227 6.37207 14.2227 14.2227zM200.505 262.884
c0 -7.85059 -6.40039 -14.2227 -14.2227 -14.2227h-28.4443c-7.87891 0 -14.2217 6.37207 -14.2217 14.2227v28.4443c0 7.85059 6.34277 14.2217 14.2217 14.2217h28.4443c7.82227 0 14.2227 -6.37109 14.2227 -14.2217v-28.4443zM285.838 262.884
c0 -7.85059 -6.39941 -14.2227 -14.2217 -14.2227h-28.4443c-7.87988 0 -14.2227 6.37207 -14.2227 14.2227v28.4443c0 7.85059 6.34277 14.2217 14.2227 14.2217h28.4443c7.82227 0 14.2217 -6.37109 14.2217 -14.2217v-28.4443zM371.172 262.884
c0 -7.85059 -6.40039 -14.2227 -14.2227 -14.2227h-28.4443c-7.87891 0 -14.2227 6.37207 -14.2227 14.2227v28.4443c0 7.85059 6.34375 14.2217 14.2227 14.2217h28.4443c7.82227 0 14.2227 -6.37109 14.2227 -14.2217v-28.4443zM371.172 177.55
c0 -7.85059 -6.40039 -14.2217 -14.2227 -14.2217h-199.111c-7.87891 0 -14.2217 6.37109 -14.2217 14.2217v0c0 7.85156 6.34277 14.2227 14.2217 14.2227h199.111c7.85059 0 14.2227 -6.37109 14.2227 -14.2227v0zM371.172 92.4443
c0 -7.85059 -6.40039 -14.2217 -14.2227 -14.2217h-199.111c-7.87891 0 -14.2217 6.37109 -14.2217 14.2217v0c0 7.85059 6.34277 14.2227 14.2217 14.2227h199.111c7.85059 0 14.2227 -6.37207 14.2227 -14.2227v0z" />
    <glyph glyph-name="uniF10A" unicode="&#xf10a;" horiz-adv-x="511" 
d="M195.328 320c0 -7.85059 -6.37109 -14.2227 -14.2217 -14.2227h-28.4443c-7.85156 0 -14.2227 6.37207 -14.2227 14.2227v28.4443c0 7.85059 6.37109 14.2227 14.2227 14.2227h28.4443c7.85059 0 14.2217 -6.37207 14.2217 -14.2227v-28.4443zM309.334 320
c0 -7.85059 -6.37207 -14.2227 -14.2227 -14.2227h-28.4443c-7.85059 0 -14.2227 6.37207 -14.2227 14.2227v28.4443c0 7.85059 6.37207 14.2227 14.2227 14.2227h28.4443c7.85059 0 14.2227 -6.37207 14.2227 -14.2227v-28.4443zM195.328 206.223
c0 -7.85156 -6.37109 -14.2227 -14.2217 -14.2227h-28.4443c-7.85156 0 -14.2227 6.37109 -14.2227 14.2227v28.4443c0 7.85059 6.37109 14.2217 14.2227 14.2217h28.4443c7.85059 0 14.2217 -6.37109 14.2217 -14.2217v-28.4443zM309.334 206.223
c0 -7.85156 -6.37207 -14.2227 -14.2227 -14.2227h-28.4443c-7.85059 0 -14.2227 6.37109 -14.2227 14.2227v28.4443c0 7.85059 6.37207 14.2217 14.2227 14.2217h28.4443c7.85059 0 14.2227 -6.37109 14.2227 -14.2217v-28.4443zM195.328 92.4443
c0 -7.85059 -6.37109 -14.2217 -14.2217 -14.2217h-28.4443c-7.85156 0 -14.2227 6.37109 -14.2227 14.2217v28.4443c0 7.85059 6.37109 14.2227 14.2227 14.2227h28.4443c7.85059 0 14.2217 -6.37207 14.2217 -14.2227v-28.4443zM309.334 92.4443
c0 -7.85059 -6.37207 -14.2217 -14.2227 -14.2217h-28.4443c-7.85059 0 -14.2227 6.37109 -14.2227 14.2217v28.4443c0 7.85059 6.37207 14.2227 14.2227 14.2227h28.4443c7.85059 0 14.2227 -6.37207 14.2227 -14.2227v-28.4443zM366.223 448
c15.7295 0 28.4443 -12.7432 28.4443 -28.4443v-455.111c0 -15.7012 -12.7148 -28.4443 -28.4443 -28.4443h-284.444c-15.7305 0 -28.4443 12.7432 -28.4443 28.4443v455.111c0 15.7012 12.7139 28.4443 28.4443 28.4443h284.444zM366.223 -21.333v426.666
c0 7.85059 -6.37207 14.2227 -14.2227 14.2227h-256c-7.85059 0 -14.2217 -6.37207 -14.2217 -14.2227v-426.666c0 -7.85059 6.37109 -14.2227 14.2217 -14.2227h256c7.85059 0 14.2227 6.37207 14.2227 14.2227zM480 -49.7773
c0 -7.85156 -6.37109 -14.2227 -14.2217 -14.2227h-483.556c-7.85059 0 -14.2227 6.37109 -14.2227 14.2227v0c0 7.85059 6.37207 14.2217 14.2227 14.2217h483.556c7.85059 0 14.2217 -6.37109 14.2217 -14.2217v0z" />
    <glyph glyph-name="uniF12C" unicode="&#xf12c;" 
d="M496.128 12.3037l-0.0078125 -0.015625c19.624 -17.6641 21.2803 -46.5117 3.67969 -64.1123c-17.5996 -17.5996 -46.4482 -15.9434 -64.1113 3.68066l-103.145 121.279c-11.2803 12.5361 -16.4639 25.9443 -15.96 36.7764
c-33.5361 -28.624 -77.04 -45.9199 -124.592 -45.9199c-106.04 0 -192 85.96 -192 192s85.96 192 192 192s192 -85.96 192 -192c0 -47.5439 -17.2959 -91.0479 -45.9199 -124.584c10.832 0.503906 24.2393 -4.68066 36.7754 -15.96zM192 128c70.6963 0 128 57.3037 128 128
s-57.3037 128 -128 128s-128 -57.3037 -128 -128s57.3115 -128 128 -128z" />
    <glyph glyph-name="uniF13D" unicode="&#xf13d;" 
d="M32 448h192v-32h-192v32zM288 448h192v-32h-192v32zM476 288c19.7998 0 36 -16.2002 36 -36v-280c0 -19.7998 -16.2002 -36 -36 -36h-152c-19.7998 0 -36 16.2002 -36 36v188h-64v-188c0 -19.7998 -16.2002 -36 -36 -36h-152c-19.7998 0 -36 16.2002 -36 36v280
c0 19.7998 16.2002 36 36 36h28v128h128v-128h128v128h128v-128h28zM174 -32c9.9043 0 18 7.2002 18 16s-8.0957 16 -18 16h-124c-9.89648 0 -18 -7.2002 -18 -16s8.10352 -16 18 -16h124zM272 192c8.7998 0 16 7.2002 16 16s-7.2002 16 -16 16h-32
c-8.7998 0 -16 -7.2002 -16 -16s7.2002 -16 16 -16h32zM462 -32c9.89648 0 18 7.2002 18 16s-8.10352 16 -18 16h-124c-9.89648 0 -18 -7.2002 -18 -16s8.10352 -16 18 -16h124z" />
    <glyph glyph-name="uniF110" unicode="&#xf110;" 
d="M483.556 391.566c15.7295 0 28.4443 -12.7432 28.4443 -28.4443v-341.334c0 -15.7012 -12.7148 -28.4443 -28.4443 -28.4443h-455.111c-15.7305 0 -28.4443 12.7432 -28.4443 28.4443v341.334c0 15.7012 12.7139 28.4443 28.4443 28.4443h455.111zM483.556 36.0107
v284.444c0 7.85059 -6.34375 14.2227 -14.2227 14.2227h-426.667c-7.82227 0 -14.2217 -6.37207 -14.2217 -14.2227v-284.444c0 -7.85059 6.39941 -14.2227 14.2217 -14.2227h426.667c7.87891 0 14.2227 6.37207 14.2227 14.2227zM199.14 -6.65625v398.223h28.4443v-398.223
h-28.4443zM170.666 263.566c0 -7.85059 -6.37109 -14.2227 -14.2217 -14.2227h-85.334c-7.85059 0 -14.2217 6.37207 -14.2217 14.2227v0c0 7.85059 6.37109 14.2217 14.2217 14.2217h85.334c7.85059 0 14.2217 -6.37109 14.2217 -14.2217v0zM170.666 178.232
c0 -7.85059 -6.37109 -14.2217 -14.2217 -14.2217h-85.334c-7.85059 0 -14.2217 6.37109 -14.2217 14.2217v0c0 7.85156 6.37109 14.2227 14.2217 14.2227h85.334c7.85059 0 14.2217 -6.37109 14.2217 -14.2227v0zM170.666 92.8994
c0 -7.85059 -6.37109 -14.2217 -14.2217 -14.2217h-85.334c-7.85059 0 -14.2217 6.37109 -14.2217 14.2217v0c0 7.85059 6.37109 14.2227 14.2217 14.2227h85.334c7.85059 0 14.2217 -6.37207 14.2217 -14.2227v0z" />
    <glyph glyph-name="uniF138" unicode="&#xf138;" 
d="M240 416c132.552 0 240 -107.448 240 -240s-107.448 -240 -240 -240s-240 107.448 -240 240s107.448 240 240 240zM375.792 96h56.2637c8.52051 20.4404 13.6641 41.9043 15.3359 64h-63.7197c-0.879883 -22.3037 -3.5918 -43.7764 -7.87988 -64zM104.208 256h-56.2637
c-8.52832 -20.4404 -13.6719 -41.9043 -15.3359 -64h63.7197c0.879883 22.3037 3.5918 43.7764 7.87988 64zM343.016 256h-87.0156v-64h95.6562c-0.944336 22.0723 -3.83203 43.5195 -8.64062 64zM256 288h77.6318c-5.37598 15.0322 -11.8076 28.8398 -19.248 41.2402
c-10.7598 17.9355 -23.4795 32.376 -36.7676 41.7441c-7.09668 5 -14.3203 8.56738 -21.6162 10.6875v-93.6719zM165.616 329.24c-7.44043 -12.4004 -13.8721 -26.208 -19.248 -41.2402h77.6318v93.6719c-7.2959 -2.12793 -14.5283 -5.6875 -21.6162 -10.6875
c-13.2881 -9.36816 -26 -23.8086 -36.7676 -41.7441zM224 256h-87.0156c-4.80859 -20.4805 -7.7041 -41.9277 -8.64062 -64h95.6562v64zM47.9443 96h56.2637c-4.28809 20.2236 -7 41.6963 -7.87988 64h-63.7197c1.66406 -22.0957 6.80762 -43.5596 15.3359 -64zM128.344 160
c0.944336 -22.0723 3.83203 -43.5195 8.64062 -64h87.0156v64h-95.6562zM224 64h-77.6318c5.37598 -15.0322 11.8076 -28.8398 19.248 -41.2402c10.7598 -17.9355 23.4717 -32.376 36.7676 -41.7441c7.09668 -5 14.3203 -8.56738 21.6162 -10.6875v93.6719zM314.384 22.7598
c7.44043 12.4004 13.8721 26.208 19.248 41.2402h-77.6318v-93.6719c7.2959 2.12793 14.5283 5.6875 21.6162 10.6875c13.2881 9.36816 26 23.8086 36.7676 41.7441zM256 96h87.0156c4.80859 20.4805 7.7041 41.9277 8.64062 64h-95.6562v-64zM383.672 192h63.7197
c-1.66406 22.0957 -6.80762 43.5596 -15.3359 64h-56.2637c4.28809 -20.2236 7 -41.6963 7.87988 -64zM415.328 288c-8.06445 12.6084 -17.5039 24.3438 -28.248 35.0801c-16.832 16.8242 -36.0879 30.4639 -57.3604 40.6318
c15.4727 -20.5684 28.3359 -46.3281 37.6562 -75.7119h47.9521zM92.9199 323.08c-10.7363 -10.7441 -20.1758 -22.4717 -28.248 -35.0801h47.9521c9.32031 29.376 22.1836 55.1436 37.6562 75.7119c-21.2725 -10.168 -40.5283 -23.7998 -57.3604 -40.6318zM64.6719 64
v0.0078125c8.06445 -12.6074 17.5117 -24.3438 28.248 -35.0801c16.832 -16.832 36.0879 -30.4717 57.3604 -40.6396c-15.4639 20.5684 -28.3359 46.3281 -37.6562 75.7119h-47.9521zM387.08 28.9199v-0.0078125c10.7363 10.7441 20.1758 22.4717 28.248 35.0801h-47.9521
c-9.32031 -29.376 -22.1836 -55.1445 -37.6562 -75.7119c21.2725 10.1758 40.5361 23.8076 57.3604 40.6396z" />
    <glyph glyph-name="uniF139" unicode="&#xf139;" 
d="M192 32h320v-64h-320v64zM192 224h320v-64h-320v64zM192 416h320v-64h-320v64zM96 448v-128h-32v96h-32v32h64zM64 185v-25h64v-32h-96v73l64 30v25h-64v32h96v-73zM128 96v-160h-96v32h64v32h-64v32h64v32h-64v32h96z" />
    <glyph glyph-name="uniF133" unicode="&#xf133;" 
d="M512.752 48l-0.767578 0.34375c0 -0.111328 0.015625 -0.231445 0.015625 -0.34375c0 -38.1123 -85.2959 -70 -199.488 -78.04c-10.7598 -20.2002 -32.0234 -33.96 -56.5117 -33.96s-45.752 13.7598 -56.5117 33.96c-114.192 8.04004 -199.488 39.9277 -199.488 78.04
c0 144 128 112 128 224c0 0.992188 0.0078125 1.95996 0.0322266 2.91992c1.16797 66.0723 41.8877 121.224 96.624 136.72c-0.423828 1.97656 -0.65625 4.0166 -0.65625 6.10449c0 16.6318 14.4004 30.248 32 30.248s32 -13.6084 32 -30.248
c0 -2.08789 -0.232422 -4.12793 -0.664062 -6.10449c48.8076 -13.8232 86.4717 -59.168 94.8877 -115.68c1.63281 -6.75195 2.52832 -14.6797 2.52832 -23.96c0 -112 128 -80 128 -224zM413.12 20.9521c37.3115 9.95996 55.1523 21.0957 61.6797 27.0479
c-6.52734 5.95215 -24.3682 17.0879 -61.6797 27.0479c-43.3838 11.5762 -99.1846 17.9521 -157.12 17.9521s-113.736 -6.37598 -157.12 -17.9521c-37.3115 -9.95996 -55.1523 -21.0957 -61.6797 -27.0479c6.52734 -5.95215 24.3682 -17.0879 61.6797 -27.0479
c27.1123 -7.24023 59.0801 -12.4404 93.3838 -15.3281c2.84863 32.7119 30.2881 58.376 63.7363 58.376s60.8877 -25.6641 63.7363 -58.376c34.3037 2.8877 66.2715 8.0957 93.3838 15.3281z" />
    <glyph glyph-name="uniF12E" unicode="&#xf12e;" 
d="M256 384c123.712 0 224 -100.288 224 -224s-100.288 -224 -224 -224s-224 100.288 -224 224s100.288 224 224 224zM256 -20c99.4082 0 180 80.584 180 180s-80.5918 180 -180 180c-99.416 0 -180 -80.5918 -180 -180s80.584 -180 180 -180zM467.392 304.416v0
c-36.752 53.6875 -93.4072 92.6719 -159.352 106.288c17.5596 22.6875 45.0479 37.2959 75.96 37.2959c53.0156 0 96 -42.9756 96 -96c0 -17.3115 -4.58398 -33.5596 -12.6084 -47.584zM203.96 410.704c-65.9443 -13.6162 -122.6 -52.6006 -159.352 -106.288
c-8.02441 14.0244 -12.6084 30.2637 -12.6084 47.584c0 53.0244 42.9756 96 96 96c30.9121 0 58.4004 -14.6084 75.96 -37.2959zM256 160h96v-32h-128v160h32v-128z" />
    <glyph glyph-name="uniF119" unicode="&#xf119;" 
d="M256 448.598c141.34 0 256 -114.603 256 -256s-114.66 -256 -256 -256c-141.397 0 -256 114.603 -256 256s114.603 256 256 256zM256 -34.958c125.667 0 227.498 101.888 227.498 227.556c0 125.667 -101.831 227.556 -227.498 227.556
c-125.696 0 -227.556 -101.889 -227.556 -227.556c0 -125.668 101.859 -227.556 227.556 -227.556zM426.609 192.598c0 -7.85059 -6.34277 -14.2227 -14.2217 -14.2227h-312.832c-7.85156 0 -14.2227 6.37207 -14.2227 14.2227v0c0 7.85059 6.37109 14.2217 14.2227 14.2217
h312.832c7.87891 0 14.2217 -6.37109 14.2217 -14.2217v0zM256 21.9307c-7.87988 0 -14.2227 6.37109 -14.2227 14.251v312.86c0 7.85059 6.34277 14.2217 14.2227 14.2217v0c7.82227 0 14.2217 -6.37109 14.2217 -14.2217v-312.86
c0 -7.87988 -6.39941 -14.251 -14.2217 -14.251v0z" />
    <glyph glyph-name="uniF118" unicode="&#xf118;" 
d="M256 448c141.384 0 256 -35.8164 256 -80v-48l-192 -192v-160c0 -17.6719 -28.6562 -32 -64 -32s-64 14.3281 -64 32v160l-192 192v48c0 44.1836 114.616 80 256 80zM47.1924 378.584c-7.89648 -4.49609 -12.168 -8.31152 -14.1523 -10.584
c1.99219 -2.27246 6.25586 -6.08008 14.1523 -10.584c11.9756 -6.83203 28.792 -13.3125 48.6396 -18.7441c43.9678 -12.04 100.856 -18.6719 160.168 -18.6719s116.2 6.63184 160.168 18.6719c19.8477 5.43164 36.6641 11.9121 48.6396 18.7441
c7.89648 4.49609 12.168 8.31152 14.1523 10.584c-1.99219 2.27246 -6.25586 6.08008 -14.1523 10.584c-11.9756 6.83203 -28.792 13.3125 -48.6396 18.7441c-43.9678 12.0322 -100.856 18.6641 -160.168 18.6641s-116.2 -6.62402 -160.168 -18.6641
c-19.8477 -5.43164 -36.6641 -11.9121 -48.6396 -18.7441z" />
    <glyph glyph-name="uniF140" unicode="&#xf140;" 
d="M256 416c141.384 0 256 -114.616 256 -256c0 -96.4004 -53.2881 -180.336 -132.008 -224h-247.992c-78.7119 43.6641 -132 127.6 -132 224c0 141.384 114.616 256 256 256zM400.96 15.04c38.7197 38.7197 60.04 90.2002 60.04 144.96h-45v32h42.5195
c-3.50391 22.4961 -10.6953 44.0723 -21.2793 64h-53.2402v32h32.1436c-4.71973 5.87988 -9.77539 11.5518 -15.1836 16.96c-23.1123 23.1123 -50.7676 40.0156 -80.96 49.8965v-34.8564h-32v42.5195c-10.4883 1.63281 -21.1836 2.48047 -32 2.48047
s-21.5117 -0.847656 -32 -2.48047v-42.5195h-32v34.8564c-30.1836 -9.88086 -57.8477 -26.7842 -80.96 -49.8965c-5.4082 -5.4082 -10.4639 -11.0723 -15.1836 -16.96h32.1436v-32h-53.2402c-10.584 -19.9277 -17.7754 -41.5039 -21.2793 -64h42.5195v-32h-45
c0 -54.7598 21.3203 -106.24 60.04 -144.96c5.35156 -5.35156 10.96 -10.3604 16.7842 -15.04h96.1758l18.2881 256h27.4238l18.2881 -256h96.1758c5.81641 4.67969 11.4238 9.68848 16.7764 15.04h0.0078125z" />
    <glyph glyph-name="uniF10D" unicode="&#xf10d;" 
d="M256 448c141.384 0 256 -114.616 256 -256s-114.616 -256 -256 -256s-256 114.616 -256 256s114.616 256 256 256zM256 -16c114.872 0 208 93.1279 208 208s-93.1279 208 -208 208s-208 -93.1279 -208 -208s93.1279 -208 208 -208zM336 320l48 -48l-80 -80l80 -80
l-48 -48l-80 80l-80 -80l-48 48l80 80l-80 80l48 48l80 -80z" />
    <glyph glyph-name="uniF12B" unicode="&#xf12b;" 
d="M306.546 269.397c1.82031 1.59277 4.35156 1.84863 6.39941 0.540039c2.41797 -1.56445 3.2998 -4.77832 2.30469 -7.48047zM187.933 139.321c-2.58887 -0.426758 -5.34766 0.995117 -6.65625 3.66895c-1.53613 3.15723 -0.625977 6.99707 1.87695 9.0166z
M269.568 141.853l-11.4062 -2.75879l-2.19043 10.0977l9.41504 3.55566c-1.16602 -2.10547 -1.25195 -4.75098 -0.227539 -7.02637c0.881836 -1.99121 2.53125 -3.32812 4.40918 -3.86816zM252.273 127.829l3.58398 -9.69922l-8.76074 -4.97754
c0.768555 2.27539 0.597656 4.86328 -0.824219 6.94043c-0.911133 1.4502 -2.27637 2.38867 -3.75488 2.90137zM306.603 269.426l8.67578 -6.96875l-64.626 -141.853l-65.2803 18.915l-2.47461 12.1748zM205.397 -4.5791
c-1.79199 -1.53613 -4.35254 -1.82129 -6.42871 -0.512695c-2.41797 1.56445 -3.2998 4.75 -2.27539 7.48145zM324.011 125.554c2.58887 0.426758 5.34766 -0.995117 6.59863 -3.69727c1.62207 -3.10059 0.740234 -6.99805 -1.84863 -9.01758zM205.397 -4.6084
l-8.7041 6.99805l64.5977 141.881l65.2793 -18.916l2.50391 -12.2305zM512 -48.583c0 -7.85059 -6.37109 -14.2227 -14.2227 -14.2227h-483.555c-7.85156 0 -14.2227 6.37207 -14.2227 14.2227v0c0 7.85059 6.37109 14.2217 14.2227 14.2217h483.555
c7.85156 0 14.2227 -6.37109 14.2227 -14.2217v0zM245.959 445.014c5.54688 5.5459 14.5635 5.5459 20.1104 0l219.164 -219.193c5.54688 -5.54688 5.54688 -14.5635 0 -20.1104v0c-5.5459 -5.54688 -14.5635 -5.54688 -20.1094 0l-219.165 219.193
c-5.60352 5.5752 -5.60352 14.5635 0 20.1104v0zM26.7949 205.71c-5.54688 5.54688 -5.54688 14.5635 0 20.1104l219.221 219.165c5.54688 5.5459 14.5635 5.5459 20.1104 0v0c5.54688 -5.54688 5.54688 -14.5645 0 -20.1104l-219.221 -219.165
c-5.54688 -5.5752 -14.5352 -5.5752 -20.1104 0v0zM65.4219 -48.583c0 -7.85059 -6.37109 -14.2227 -14.2217 -14.2227v0c-7.85059 0 -14.2227 6.37207 -14.2227 14.2227v277.049c0 7.85059 6.37207 14.2227 14.2227 14.2227v0c7.85059 0 14.2217 -6.37207 14.2217 -14.2227
v-277.049zM475.022 -48.583c0 -7.85059 -6.37207 -14.2227 -14.2227 -14.2227v0c-7.85059 0 -14.2217 6.37207 -14.2217 14.2227v276.622c0 7.85059 6.37109 14.2227 14.2217 14.2227v0c7.85059 0 14.2227 -6.37207 14.2227 -14.2227v-276.622z" />
    <glyph glyph-name="uniF104" unicode="&#xf104;" 
d="M132.551 445.042c5.54688 5.51758 14.5635 5.51758 20.1104 0l241.551 -241.721c5.5459 -5.54688 5.5459 -14.5635 0 -20.1104v0c-5.54688 -5.51855 -14.5635 -5.51855 -20.1104 0l-241.551 241.721c-5.5459 5.54688 -5.5459 14.5635 0 20.1104v0zM394.126 203.264
c5.54688 -5.5459 5.54688 -14.5635 0 -20.1104l-241.664 -241.806c-5.5459 -5.54688 -14.5635 -5.51855 -20.1104 0v0c-5.5459 5.54688 -5.5459 14.5635 0 20.1104l241.664 241.806c5.54688 5.54688 14.5352 5.51855 20.1104 0v0z" />
    <glyph glyph-name="uniF124" unicode="&#xf124;" 
d="M0 384h64v-320h-64v320zM96 384h32v-320h-32v320zM160 384h32v-320h-32v320zM256 384h32v-320h-32v320zM384 384h32v-320h-32v320zM480 384h32v-320h-32v320zM320 384h16v-320h-16v320zM224 384h16v-320h-16v320zM432 384h16v-320h-16v320zM0 32h32v-32h-32v32zM96 32h32
v-32h-32v32zM160 32h32v-32h-32v32zM320 32h32v-32h-32v32zM480 32h32v-32h-32v32zM384 32h64v-32h-64v32zM224 32h64v-32h-64v32z" />
    <glyph glyph-name="uniF13E" unicode="&#xf13e;" 
d="M272 80l112 112l-112 112l48 48l160 -160l-160 -160zM208 304l-112 -112l112 -112l-48 -48l-160 160l160 160z" />
    <glyph glyph-name="uniF12D" unicode="&#xf12d;" 
d="M128 128c0 80.1602 64 160 192 160v96l192 -128l-192 -128v96c-162.584 0 -192 -96 -192 -96zM352 64v27.6484l64 42.6631v-134.312h-416v320h221.24c-29.7764 -10.584 -56.0723 -26.3203 -78.0566 -46.9121c-5.79199 -5.42383 -11.1992 -11.1279 -16.248 -17.0879
h-62.9355v-192h288z" />
    <glyph glyph-name="uniF112" unicode="&#xf112;" 
d="M64 288h352v-320c0 -17.5996 -14.4004 -32 -32 -32h-288c-17.5996 0 -32 14.4004 -32 32v320zM160 0v224h-32v-224h32zM224 0v224h-32v-224h32zM288 0v224h-32v-224h32zM352 0v224h-32v-224h32zM424 384c13.2002 0 24 -10.7998 24 -24v-40h-416v40
c0 13.2002 10.7998 24 24 24h104v40c0 13.2002 10.7998 24 24 24h112c13.2002 0 24 -10.7998 24 -24v-40h104zM288 384v31.5996h-96v-31.5996h96z" />
  </font>
</defs>
</svg>
